<?xml version="1.0" encoding="UTF-8"?>
<svg width="17px" height="16px" viewBox="0 0 17 16" version="1.1" xmlns="http://www.w3.org/2000/svg" xmlns:xlink="http://www.w3.org/1999/xlink">
    <!-- Generator: sketchtool 53.2 (72643) - https://sketchapp.com -->
    <title>6A20883A-E140-4611-A069-E6423CFB7B72</title>
    <desc>Created with sketchtool.</desc>
    <g id="Scheduling-(Bulk-Non-Premium)---Desktop" stroke="none" stroke-width="1" fill="none" fill-rule="evenodd">
        <g id="Desktop---Student-Bulk-Search-Results" transform="translate(-959.000000, -542.000000)" fill="#1D1D1D">
            <g id="Stacked-Group" transform="translate(944.000000, 225.000000)">
                <g transform="translate(0.000000, 204.000000)" id="Component/Booking-Details-List-Copy-2">
                    <g transform="translate(0.000000, 102.000000)">
                        <g id="Stacked-Group" transform="translate(15.256410, 10.000000)">
                            <g id="Stacked-Group-2">
                                <g id="Components/Horizontal-List-with-icon-(Small)">
                                    <g id="Components/Horizontal-List-with-icon-(Small---Medium-Text)">
                                        <g id="Icon/Arrow-Down" transform="translate(0.000000, 1.000000)">
                                            <path d="M14.00482,2.98505662 L12.9850566,4.01051696 C12.9071696,4.08883907 12.7805371,4.08919181 12.702215,4.01130482 C12.7020833,4.01117387 12.7019518,4.01104275 12.7018205,4.01091144 L11.9592098,3.2683007 C11.8812587,3.19034964 11.8810828,3.06402036 11.9588164,2.98585247 L12.9785797,1.96039213 C13.0564667,1.88207002 13.1830992,1.88171728 13.2614214,1.95960427 C13.261553,1.95973522 13.2616845,1.95986634 13.2618158,1.95999765 L14.0044266,2.70260839 C14.0823776,2.78055945 14.0825536,2.90688873 14.00482,2.98505662 Z M8.52727273,2.18181818 L7.47272727,2.18181818 C7.36227032,2.18181818 7.27272727,2.09227513 7.27272727,1.98181818 L7.27272727,0.2 C7.27272727,0.08954305 7.36227032,9.63980183e-16 7.47272727,9.43689571e-16 L8.52727273,9.15933995e-16 C8.63772968,8.95643383e-16 8.72727273,0.08954305 8.72727273,0.2 L8.72727273,1.98181818 C8.72727273,2.09227513 8.63772968,2.18181818 8.52727273,2.18181818 Z M15.8,8.72727273 L14.0181818,8.72727273 C13.9077249,8.72727273 13.8181818,8.63772968 13.8181818,8.52727273 L13.8181818,7.47272727 C13.8181818,7.36227032 13.9077249,7.27272727 14.0181818,7.27272727 L15.8,7.27272727 C15.9104569,7.27272727 16,7.36227032 16,7.47272727 L16,8.52727273 C16,8.63772968 15.9104569,8.72727273 15.8,8.72727273 Z M1.98181818,8.72727273 L0.2,8.72727273 C0.08954305,8.72727273 6.90382263e-17,8.63772968 5.55111512e-17,8.52727273 L2.77555756e-17,7.47272727 C1.42285006e-17,7.36227032 0.08954305,7.27272727 0.2,7.27272727 L1.98181818,7.27272727 C2.09227513,7.27272727 2.18181818,7.36227032 2.18181818,7.47272727 L2.18181818,8.52727273 C2.18181818,8.63772968 2.09227513,8.72727273 1.98181818,8.72727273 Z M4.04806294,3.26102797 L3.31193706,3.99715384 C3.233986,4.07510491 3.10765672,4.07528085 3.02948883,3.99754723 L2.0040285,2.97778389 C1.92570638,2.8998969 1.92535364,2.7732644 2.00324064,2.69494228 C2.00337158,2.6948106 2.00350271,2.69467911 2.00363402,2.6945478 L2.74545689,1.95272493 C2.82356175,1.87462007 2.95019475,1.87462007 3.0282996,1.95272493 C3.02843091,1.95285624 3.02856204,1.95298773 3.02869298,1.95311941 L4.04845632,2.97857974 C4.12618994,3.05674763 4.126014,3.18307691 4.04806294,3.26102797 Z M7.23441771,12.3782609 L8.76558229,12.3782609 C9.16158504,12.3782609 9.4826087,12.0572372 9.4826087,11.6612345 L9.4826087,11.2946087 C9.4826087,11.0749662 9.58964653,10.8691042 9.76944456,10.7429475 C10.5987614,10.1610512 11.1,9.22436905 11.1,8.2 C11.1,6.48791728 9.71208272,5.1 8,5.1 C6.28791728,5.1 4.9,6.48791728 4.9,8.2 C4.9,9.22436905 5.40123858,10.1610512 6.23055544,10.7429475 C6.41035347,10.8691042 6.5173913,11.0749662 6.5173913,11.2946087 L6.5173913,11.6612345 C6.5173913,12.0572372 6.83841496,12.3782609 7.23441771,12.3782609 Z M10.2839063,13.3547999 C10.4035368,13.5147978 10.475,13.7172817 10.475,13.9375 C10.475,14.4273514 10.1214065,14.829455 9.67061534,14.8713901 C9.40449211,15.5329635 8.75678716,16 8,16 C7.23122462,16 6.57501476,15.5180497 6.31702608,14.8398049 C5.94651668,14.7286207 5.675,14.3667502 5.675,13.9375 C5.675,13.7590414 5.72193,13.5922289 5.80339261,13.4502349 C5.6786752,13.3402875 5.6,13.1793315 5.6,13 L5.6,11.644 C4.514,10.882 3.8,9.628 3.8,8.2 C3.8,5.88040405 5.68040405,4 8,4 C10.3195959,4 12.2,5.88040405 12.2,8.2 C12.2,9.628 11.486,10.882 10.4,11.644 L10.4,13 C10.4,13.1327476 10.35689,13.2554264 10.2839063,13.3547999 Z" id="Combined-Shape"></path>
                                        </g>
                                    </g>
                                </g>
                            </g>
                        </g>
                    </g>
                </g>
            </g>
        </g>
    </g>
</svg>