<?xml version="1.0" encoding="UTF-8"?>
<svg width="32px" height="32px" viewBox="0 0 32 32" version="1.1" xmlns="http://www.w3.org/2000/svg" xmlns:xlink="http://www.w3.org/1999/xlink">
    <!-- Generator: sketchtool 53.2 (72643) - https://sketchapp.com -->
    <title>B8270109-6678-4B99-908D-D49B1462E8AA</title>
    <desc>Created with sketchtool.</desc>
    <g id="Scheduling-(Bulk-Non-Premium)---Desktop" stroke="none" stroke-width="1" fill="none" fill-rule="evenodd">
        <g id="Desktop---Student-Bulk-Search-Results" transform="translate(-20.000000, -88.000000)" fill="#1D1D1D">
            <g id="Component/Vertical-Menu" transform="translate(0.000000, 72.000000)">
                <g id="Stacked-Group" transform="translate(2.000000, 16.000000)">
                    <g id="Stacked-Group-Copy" transform="translate(4.000000, 0.000000)">
                        <g id="Icon/Location" transform="translate(14.000000, 0.000000)">
                            <path d="M16,2 C23.7196,2 30,8.2804 30,16 C30,23.7196 23.7196,30 16,30 C8.2804,30 2,23.7196 2,16 C2,8.2804 8.2804,2 16,2 Z M16,0 C7.17733333,0 0,7.17733333 0,16 C0,24.8226667 7.17733333,32 16,32 C24.8226667,32 32,24.8226667 32,16 C32,10.7946033 29.5015479,6.16195235 25.6408155,3.23821893 C22.9579631,1.20649417 19.61727,0 16,0 Z M26.0066669,11.1346664 L22.7346668,12.6093331 C23.0240002,13.1333332 23.2546668,13.6893332 23.4240002,14.2653332 L26.6946669,12.7906665 C26.5066669,12.2213331 26.2760002,11.6653331 26.0066669,11.1346664 Z M11.1560001,10.3093333 L8.63600017,7.68533325 C8.19866684,8.07733326 7.78666684,8.50533327 7.41200018,8.96133328 L9.93066682,11.5853333 C10.2920001,11.1133333 10.7040001,10.6866667 11.1560001,10.3093333 Z M13.814667,8.86933324 L12.4360003,5.44399977 C11.8893336,5.63333311 11.3533336,5.86799978 10.8386669,6.14266646 L12.2173336,9.5666666 C12.722667,9.27199992 13.258667,9.03866658 13.814667,8.86933324 Z M8.53866652,14.3880002 C8.69999986,13.8080003 8.92266652,13.2493336 9.20266652,12.7213336 L5.90933319,11.298667 C5.64666653,11.8360003 5.42399986,12.3960003 5.24533319,12.9653336 L8.53866652,14.3880002 Z M19.5173337,5.42933321 L18.1520004,8.86000002 C18.7080004,9.02666669 19.2453337,9.2586667 19.7520004,9.55200005 L21.1173337,6.12133324 C20.6013337,5.84799989 20.0640004,5.61599988 19.5173337,5.42933321 Z M24.5853333,8.96133328 C24.2093334,8.50533327 23.7986667,8.07599993 23.3613334,7.68533325 L20.8413334,10.3093333 C21.2933334,10.6866667 21.704,11.1146667 22.0653334,11.5853333 L24.5853333,8.96133328 Z M16.864,4.88266672 C16.572,4.86000005 16.2813333,4.84800005 15.9986666,4.84800005 C15.716,4.84800005 15.424,4.86000005 15.132,4.88266672 L15.132,8.59466672 C15.42,8.56133339 15.7106666,8.54400005 15.9986666,8.54400005 C16.2866666,8.54400005 16.5773333,8.56133339 16.864,8.59466672 L16.864,4.88266672 Z M16.0000005,23.258666 C14.2746671,23.258666 12.8760004,21.8599994 12.8760004,20.1346661 C12.8760004,18.9573328 13.5280004,17.9319995 14.4893338,17.3999995 L16.0000005,10.3199997 L17.5106672,17.3986662 C18.4733339,17.9306662 19.1240005,18.9559995 19.1240005,20.1333328 C19.1240005,21.8599994 17.7253339,23.258666 16.0000005,23.258666 Z" id="Shape"></path>
                        </g>
                    </g>
                </g>
            </g>
        </g>
    </g>
</svg>