<?xml version="1.0" encoding="UTF-8"?>
<svg width="32px" height="32px" viewBox="0 0 32 32" version="1.1" xmlns="http://www.w3.org/2000/svg" xmlns:xlink="http://www.w3.org/1999/xlink">
    <!-- Generator: sketchtool 53.2 (72643) - https://sketchapp.com -->
    <title>B384EFD4-72CA-4954-9B92-1912A422055E</title>
    <desc>Created with sketchtool.</desc>
    <g id="Scheduling-(Bulk-Non-Premium)---Desktop" stroke="none" stroke-width="1" fill="none" fill-rule="evenodd">
        <g id="Desktop---Student-Bulk-Search-Results" transform="translate(-20.000000, -958.000000)" fill="#1D1D1D">
            <g id="Component/Vertical-Menu" transform="translate(0.000000, 72.000000)">
                <g id="Stacked-Group-2" transform="translate(20.000000, 886.000000)">
                    <g id="Icon/Location">
                        <path d="M16,2 C23.7196,2 30,8.2804 30,16 C30,23.7196 23.7196,30 16,30 C8.2804,30 2,23.7196 2,16 C2,8.2804 8.2804,2 16,2 Z M16,0 C7.17733333,0 0,7.17733333 0,16 C0,24.8226667 7.17733333,32 16,32 C24.8226667,32 32,24.8226667 32,16 C32,7.17733333 24.8226667,0 16,0 Z" id="Shape"></path>
                        <path d="M17.0067114,20 L14.1879195,20 L14.1879195,16.1806982 C17.0872483,16.0821355 18.885906,15.1704312 18.885906,13.100616 L18.885906,12.7556468 C18.885906,11.1293634 17.7315436,10.3408624 15.9865772,10.3408624 C14.1342282,10.3408624 12.9798658,11.4250513 12.5503356,12.9034908 L10,11.9671458 C10.6711409,9.8973306 12.5503356,8 16.0939597,8 C19.6644295,8 22,9.92197125 22,12.8295688 C22,15.7864476 19.5302013,17.412731 17.0067114,17.8316222 L17.0067114,20 Z M16,26 C14.547619,26 14,25.2658228 14,24.3037975 L14,23.6962025 C14,22.7341772 14.547619,22 16,22 C17.452381,22 18,22.7341772 18,23.6962025 L18,24.3037975 C18,25.2658228 17.452381,26 16,26 Z" id="?"></path>
                    </g>
                </g>
            </g>
        </g>
    </g>
</svg>