<?xml version="1.0" encoding="UTF-8"?>
<svg width="24px" height="32px" viewBox="0 0 24 32" version="1.1" xmlns="http://www.w3.org/2000/svg" xmlns:xlink="http://www.w3.org/1999/xlink">
    <!-- Generator: sketchtool 53.2 (72643) - https://sketchapp.com -->
    <title>60912773-0E19-4820-B1BE-6665F5DD000A</title>
    <desc>Created with sketchtool.</desc>
    <g id="Scheduling-(Bulk-Non-Premium)---Desktop" stroke="none" stroke-width="1" fill="none" fill-rule="evenodd">
        <g id="Desktop---Student-Bulk-Search-Results" transform="translate(-1166.000000, -22.000000)" fill="#1D1D1D">
            <g id="Components/Global-Navigation">
                <g id="Group" transform="translate(1162.000000, 22.000000)">
                    <g id="Icon/Notification">
                        <path d="M16.0017228,31.9999998 C17.5392445,31.9999998 18.7832394,30.6753486 18.7832394,29.0381393 L13.2202063,29.0381393 C13.2202063,30.6753486 14.4642011,31.9999998 16.0017228,31.9999998 Z M25.7859524,23.0697673 L25.7859524,14.1395348 C25.7859524,9.1534883 22.4872694,4.98604647 18.0983437,3.97395346 L18.0983437,2.23255812 C18.0983437,0.997209294 17.1618532,0 16.0017231,0 C14.8415931,0 13.9051025,0.997209294 13.9051025,2.23255812 L13.9051025,3.97395346 C9.51617682,4.98604647 6.2174938,9.1534883 6.2174938,14.1395348 L6.2174938,23.0697673 L4.41440011,24.9897672 C3.53381947,25.9274417 4.14882817,27.5348835 5.39282304,27.5348835 L26.5966457,27.5348835 C27.8406406,27.5348835 28.4696267,25.9274417 27.5890461,24.9897672 L25.7859524,23.0697673 Z" id="Shape"></path>
                    </g>
                </g>
            </g>
        </g>
    </g>
</svg>