<?xml version="1.0" encoding="UTF-8"?>
<svg width="23px" height="23px" viewBox="0 0 23 23" version="1.1" xmlns="http://www.w3.org/2000/svg" xmlns:xlink="http://www.w3.org/1999/xlink">
    <!-- Generator: sketchtool 53.2 (72643) - https://sketchapp.com -->
    <title>8CAD9B54-AAD5-4C43-905C-3BFF9830E58D</title>
    <desc>Created with sketchtool.</desc>
    <g id="Scheduling-(Bulk-Non-Premium)---Desktop" stroke="none" stroke-width="1" fill="none" fill-rule="evenodd">
        <g id="Desktop---Student-Bulk-Search-Results" transform="translate(-112.000000, -311.000000)" fill="#1D1D1D">
            <g id="Components/Alert" transform="translate(96.000000, 298.000000)">
                <g id="Stacked-Group" transform="translate(16.000000, 13.000000)">
                    <g id="Icon/Tick">
                        <path d="M20.1934565,4.22914756 L18.6041477,5.8273351 C18.5262607,5.90565722 18.3996282,5.90600996 18.3213061,5.82812296 C18.3211744,5.82799202 18.3210429,5.82786089 18.3209116,5.82772958 L17.1296646,4.63648253 C17.0517135,4.55853147 17.0515376,4.43220219 17.1292712,4.3540343 L18.7185799,2.75584676 C18.7964669,2.67752464 18.9230994,2.6771719 19.0014215,2.7550589 C19.0015532,2.75518984 19.0016847,2.75532097 19.001816,2.75545228 L20.1930631,3.94669933 C20.2710141,4.02465039 20.2711901,4.15097967 20.1934565,4.22914756 Z M12.3454549,3.13636373 L10.6545458,3.13636373 C10.5440888,3.13636373 10.4545458,3.04682068 10.4545458,2.93636373 L10.4545458,0.2 C10.4545458,0.08954305 10.5440888,1.01949133e-15 10.6545458,9.99200722e-16 L12.3454549,1.08246745e-15 C12.4559119,9.64071357e-16 12.5454549,0.08954305 12.5454549,0.2 L12.5454549,2.93636373 C12.5454549,3.04682068 12.4559119,3.13636373 12.3454549,3.13636373 Z M22.8000003,12.5454549 L20.0636366,12.5454549 C19.9531797,12.5454549 19.8636366,12.4559119 19.8636366,12.3454549 L19.8636366,10.6545458 C19.8636366,10.5440888 19.9531797,10.4545458 20.0636366,10.4545458 L22.8000003,10.4545458 C22.9104573,10.4545458 23.0000003,10.5440888 23.0000003,10.6545458 L23.0000003,12.3454549 C23.0000003,12.4559119 22.9104573,12.5454549 22.8000003,12.5454549 Z M2.93636373,12.5454549 L0.2,12.5454549 C0.08954305,12.5454549 -4.19840762e-17,12.4559119 -5.55111512e-17,12.3454549 L2.77555756e-17,10.6545458 C1.42285006e-17,10.5440888 0.08954305,10.4545458 0.2,10.4545458 L2.93636373,10.4545458 C3.04682068,10.4545458 3.13636373,10.5440888 3.13636373,10.6545458 L3.13636373,12.3454549 C3.13636373,12.4559119 3.04682068,12.5454549 2.93636373,12.5454549 Z M5.88079012,4.62602783 L4.69920975,5.8076082 C4.62125869,5.88555926 4.49492941,5.88573521 4.41676152,5.80800158 L2.81857397,4.21869285 C2.74025185,4.14080586 2.73989912,4.01417336 2.81778611,3.93585124 C2.81791705,3.93571956 2.81804818,3.93558807 2.81817949,3.93545676 L4.00863868,2.74499757 C4.08674354,2.66689271 4.21337653,2.66689271 4.29148139,2.74499757 C4.2916127,2.74512888 4.29174383,2.74526037 4.29187477,2.74539205 L5.8811835,4.3435796 C5.95891713,4.42174749 5.95874118,4.54807677 5.88079012,4.62602783 Z M10.3994753,17.7937498 L12.6005243,17.7937498 C13.1697783,17.7937498 13.6312498,17.3322783 13.6312498,16.7630244 L13.6312498,16.2359998 C13.6312498,15.9202638 13.7851167,15.6243371 14.0435763,15.4429869 C15.2357193,14.6065109 15.9562497,13.2600304 15.9562497,11.7874999 C15.9562497,9.32638107 13.9611187,7.33125003 11.4999998,7.33125003 C9.03888099,7.33125003 7.04374997,9.32638107 7.04374997,11.7874999 C7.04374997,13.2600304 7.7642804,14.6065109 8.95642335,15.4429869 C9.21488301,15.6243371 9.36874989,15.9202638 9.36874989,16.2359998 L9.36874989,16.7630244 C9.36874989,17.3322783 9.83022139,17.7937498 10.3994753,17.7937498 Z M14.7831154,19.1975247 C14.9550843,19.4275216 15.0578127,19.7185924 15.0578127,20.0351562 C15.0578127,20.7393178 14.5495218,21.3173418 13.9015093,21.3776233 C13.5189572,22.3286351 12.5878813,23 11.4999998,23 C10.3948852,23 9.45158355,22.3071965 9.08072485,21.3322195 C8.54811762,21.1723922 8.15781243,20.6522033 8.15781243,20.0351562 C8.15781243,19.7786222 8.22527422,19.5388294 8.34237657,19.3347131 C8.16309537,19.1766637 8.04999981,18.9452896 8.04999981,18.6875005 L8.04999981,16.7382504 C6.48887488,15.6428754 5.46249993,13.8402503 5.46249993,11.7875002 C5.46249993,8.45308093 8.16558063,5.75 11.4999997,5.75 C14.8344187,5.75 17.5374994,8.45308093 17.5374994,11.7875002 C17.5374994,13.8402503 16.5111244,15.6428754 14.9499995,16.7382504 L14.9499995,18.6875005 C14.9499995,18.8783249 14.8880291,19.0546753 14.7831154,19.1975247 Z" id="Combined-Shape"></path>
                    </g>
                </g>
            </g>
        </g>
    </g>
</svg>