<?xml version="1.0" encoding="UTF-8"?>
<svg width="16px" height="14px" viewBox="0 0 16 14" version="1.1" xmlns="http://www.w3.org/2000/svg" xmlns:xlink="http://www.w3.org/1999/xlink">
    <!-- Generator: sketchtool 53.2 (72643) - https://sketchapp.com -->
    <title>9570CEA5-7DA0-4A4A-951B-BAFBEA65A056</title>
    <desc>Created with sketchtool.</desc>
    <g id="Scheduling-(Bulk-Non-Premium)---Desktop" stroke="none" stroke-width="1" fill="none" fill-rule="evenodd">
        <g id="Desktop---Student-Bulk-Search-Results" transform="translate(-953.000000, -672.000000)" fill="#a42015">
            <g id="Stacked-Group" transform="translate(944.000000, 225.000000)">
                <g id="Component/Booking-Details-List-Copy" transform="translate(0.000000, 434.000000)">
                    <g id="Stacked-Group" transform="translate(9.000000, 11.000000)">
                        <g id="Components/Horizontal-List-with-icon-(Small)">
                            <g id="Components/Horizontal-List-with-icon-(Small---Medium-Text)">
                                <g id="Icon/Arrow-Down" transform="translate(0.000000, 1.000000)">
                                    <path d="M8.8592001,1.49172779 L15.8672542,13.5274028 C16.1408578,13.9972912 15.9779431,14.5978229 15.5033741,14.868728 C15.3527176,14.9547294 15.1818725,15 15.007971,15 L0.991862793,15 C0.444072098,15 5.39789483e-15,14.5603077 5.32907052e-15,14.0179198 C5.3015408e-15,13.8457335 0.0457215094,13.6765734 0.132579601,13.5274028 L7.14063372,1.49172779 C7.41423727,1.02183937 8.02075097,0.860531482 8.49531997,1.13143654 C8.64651408,1.21774485 8.77203207,1.34202488 8.8592001,1.49172779 Z M8.42300777,10.4181419 L8.99187026,7.53101576 L8.99187026,5.9987808 L7.00814467,5.9987808 L7.00814467,7.53101576 L7.60617959,10.4181419 L8.42300777,10.4181419 Z M8.0061681,12.8733425 C8.69615961,12.8733425 8.99187026,12.5096091 8.99187026,12.0125067 L8.99187026,11.7700178 C8.99187026,11.2729154 8.69615961,10.909182 8.0061681,10.909182 C7.30385532,10.909182 7.00814467,11.2729154 7.00814467,11.7700178 L7.00814467,12.0125067 C7.00814467,12.5096091 7.30385532,12.8733425 8.0061681,12.8733425 Z" id="Combined-Shape"></path>
                                </g>
                            </g>
                        </g>
                    </g>
                </g>
            </g>
        </g>
    </g>
</svg>
